<svg xmlns="http://www.w3.org/2000/svg" viewBox="0 0 960 640" role="img" aria-labelledby="title desc">
  <title id="title">Entrenamiento en círculo de futbolistas visto desde el aire</title>
  <desc id="desc">Ilustración de un grupo de futbolistas que realizan un rondo sobre un césped verde, simbolizando trabajo en equipo y metodología.</desc>
  <defs>
    <radialGradient id="field" cx="50%" cy="50%" r="70%">
      <stop offset="0%" stop-color="#0f8a4b" />
      <stop offset="60%" stop-color="#087b40" />
      <stop offset="100%" stop-color="#045732" />
    </radialGradient>
    <radialGradient id="center" cx="50%" cy="50%" r="55%">
      <stop offset="0%" stop-color="rgba(255,255,255,0.12)" />
      <stop offset="100%" stop-color="rgba(255,255,255,0)" />
    </radialGradient>
    <linearGradient id="shadow" x1="0" x2="0" y1="0" y2="1">
      <stop offset="0%" stop-color="rgba(0,0,0,0.35)" />
      <stop offset="100%" stop-color="rgba(0,0,0,0)" />
    </linearGradient>
  </defs>
  <rect width="960" height="640" fill="url(#field)" />
  <circle cx="480" cy="320" r="210" fill="none" stroke="rgba(255,255,255,0.45)" stroke-width="6" stroke-dasharray="18 16" />
  <circle cx="480" cy="320" r="68" fill="none" stroke="rgba(255,255,255,0.35)" stroke-width="4" stroke-dasharray="12 14" />
  <circle cx="480" cy="320" r="128" fill="url(#center)" />
  <g transform="rotate(-8 480 320)">
    <circle cx="480" cy="156" r="26" fill="#121417" opacity="0.38" />
    <circle cx="480" cy="156" r="20" fill="#f7f9f4" />
    <path d="M474 150 q6-14 12 0" stroke="#d7261c" stroke-width="6" stroke-linecap="round" />
  </g>
  <g transform="rotate(18 480 320)">
    <circle cx="672" cy="256" r="26" fill="#121417" opacity="0.32" />
    <circle cx="672" cy="256" r="20" fill="#f7f9f4" />
    <path d="M666 250 q6-14 12 0" stroke="#00966E" stroke-width="6" stroke-linecap="round" />
  </g>
  <g transform="rotate(46 480 320)">
    <circle cx="704" cy="432" r="26" fill="#121417" opacity="0.36" />
    <circle cx="704" cy="432" r="20" fill="#f7f9f4" />
    <path d="M698 426 q6-14 12 0" stroke="#d7261c" stroke-width="6" stroke-linecap="round" />
  </g>
  <g transform="rotate(84 480 320)">
    <circle cx="576" cy="536" r="26" fill="#121417" opacity="0.3" />
    <circle cx="576" cy="536" r="20" fill="#f7f9f4" />
    <path d="M570 530 q6-14 12 0" stroke="#00966E" stroke-width="6" stroke-linecap="round" />
  </g>
  <g transform="rotate(132 480 320)">
    <circle cx="384" cy="536" r="26" fill="#121417" opacity="0.34" />
    <circle cx="384" cy="536" r="20" fill="#f7f9f4" />
    <path d="M378 530 q6-14 12 0" stroke="#d7261c" stroke-width="6" stroke-linecap="round" />
  </g>
  <g transform="rotate(176 480 320)">
    <circle cx="256" cy="432" r="26" fill="#121417" opacity="0.32" />
    <circle cx="256" cy="432" r="20" fill="#f7f9f4" />
    <path d="M250 426 q6-14 12 0" stroke="#00966E" stroke-width="6" stroke-linecap="round" />
  </g>
  <g transform="rotate(210 480 320)">
    <circle cx="224" cy="256" r="26" fill="#121417" opacity="0.36" />
    <circle cx="224" cy="256" r="20" fill="#f7f9f4" />
    <path d="M218 250 q6-14 12 0" stroke="#d7261c" stroke-width="6" stroke-linecap="round" />
  </g>
  <g transform="rotate(248 480 320)">
    <circle cx="336" cy="160" r="26" fill="#121417" opacity="0.34" />
    <circle cx="336" cy="160" r="20" fill="#f7f9f4" />
    <path d="M330 154 q6-14 12 0" stroke="#00966E" stroke-width="6" stroke-linecap="round" />
  </g>
  <circle cx="480" cy="320" r="12" fill="#f5f3f3" stroke="#121417" stroke-width="6" />
  <circle cx="480" cy="320" r="6" fill="#d7261c" />
  <ellipse cx="480" cy="320" rx="160" ry="42" fill="url(#shadow)" opacity="0.45" />
</svg>
