<svg xmlns="http://www.w3.org/2000/svg" viewBox="0 0 28 20">
  <defs>
    <clipPath id="uk-flag-clip">
      <rect width="28" height="20" rx="2" />
    </clipPath>
  </defs>
  <g clip-path="url(#uk-flag-clip)">
    <rect width="28" height="20" fill="#012169" />
    <path d="M-2 -1 L11.6 8.5H8.8L-2 -0.9V-1Z" fill="#ffffff" />
    <path d="M30 -1 L16.4 8.5H19.2L30 -0.9V-1Z" fill="#ffffff" />
    <path d="M-2 21 L11.6 11.5H8.8L-2 19.1V21Z" fill="#ffffff" />
    <path d="M30 21 L16.4 11.5H19.2L30 19.1V21Z" fill="#ffffff" />
    <path d="M-2 -1 L11.6 8.5H9.9L-2 -0.1V-1Z" fill="#C8102E" />
    <path d="M30 -1 L16.1 8.7H17.9L30 0.7V-1Z" fill="#C8102E" />
    <path d="M-2 21 L11.6 11.5H9.9L-2 19.9V21Z" fill="#C8102E" />
    <path d="M30 21 L16.1 11.3H17.9L30 19.3V21Z" fill="#C8102E" />
    <rect x="11" width="6" height="20" fill="#ffffff" />
    <rect y="7" width="28" height="6" fill="#ffffff" />
    <rect x="12.2" width="3.6" height="20" fill="#C8102E" />
    <rect y="8.2" width="28" height="3.6" fill="#C8102E" />
  </g>
</svg>
